<svg version="1.1" xmlns="http://www.w3.org/2000/svg" xmlns:xlink="http://www.w3.org/1999/xlink" x="0px" y="0px" viewBox="0 0 48 48" enable-background="new 0 0 48 48" xml:space="preserve">
<path fill="#2196F3" d="M15.9,19c-0.5-3.9-3.9-7-7.9-7c-4.4,0-8,3.6-8,8s3.6,8,8,8c0,0,0,0,0.1,0C8,27.7,8,27.3,8,27
	c0-0.3,0-0.7,0.1-1c0,0,0,0-0.1,0c-3.3,0-6-2.7-6-6s2.7-6,6-6c3.1,0,5.6,2.3,6,5.3c0,0.2,0,0.5,0,0.7c0,0.5-0.1,1-0.2,1.4
	c-0.5,1.9-1.8,3.5-3.6,4.2C10.1,26,10,26.5,10,27c0,0.2,0,0.5,0,0.7c3.1-0.8,5.5-3.5,5.9-6.7c0-0.3,0.1-0.7,0.1-1
	C16,19.7,16,19.3,15.9,19z"></path>
<path fill="#FFC107" d="M23.9,28c-0.5,3.9-3.9,7-7.9,7s-7.4-3.1-7.9-7C8,27.7,8,27.3,8,27c0-0.3,0-0.7,0.1-1
	c0.4-3.3,2.8-5.9,5.9-6.7c0,0.2,0,0.5,0,0.7c0,0.5-0.1,1-0.2,1.4c-1.8,0.7-3.2,2.3-3.6,4.2C10.1,26,10,26.5,10,27c0,0.2,0,0.5,0,0.7
	c0.4,3,2.9,5.3,6,5.3s5.6-2.3,6-5.3C22.6,27.9,23.2,28,23.9,28z M18,19.3c-0.6-0.2-1.3-0.3-2-0.3c0,0.3-0.1,0.7-0.1,1
	c0,0.3,0,0.7,0.1,1c0.7,0,1.5,0.2,2.1,0.4c1.8,0.7,3.2,2.3,3.6,4.2c0.7,0.3,1.4,0.4,2.1,0.4C23.5,22.7,21.2,20.1,18,19.3z"></path>
<path fill="#F44336" d="M40,12c-4.1,0-7.4,3.1-7.9,7c0.7,0,1.3,0.1,2,0.3c0.4-3,2.9-5.3,6-5.3c3.3,0,6,2.7,6,6s-2.7,6-6,6
	c0,0,0,0-0.1,0c-0.7,0-1.5-0.2-2.1-0.4c-1.8-0.7-3.2-2.3-3.6-4.2c-0.7-0.3-1.4-0.4-2.1-0.4c0.4,3.3,2.8,5.9,5.9,6.7
	c0.6,0.2,1.3,0.3,2,0.3c0,0,0,0,0.1,0c4.4,0,8-3.6,8-8S44.4,12,40,12z"></path>
<path fill="#689F38" d="M39.9,26c-0.7,0-1.5-0.2-2.1-0.4c-0.5-1.9-1.8-3.5-3.6-4.2c-0.7-0.3-1.4-0.4-2.1-0.4c0-0.3-0.1-0.7-0.1-1
	c0-0.3,0-0.7,0.1-1c0.7,0,1.3,0.1,2,0.3C37.2,20.1,39.5,22.7,39.9,26z M38,27.7c-0.4,3-2.9,5.3-6,5.3s-5.6-2.3-6-5.3
	c0-0.2,0-0.5,0-0.7c0-0.5,0.1-1,0.2-1.4c0.5-1.9,1.8-3.5,3.6-4.2C29.9,21,30,20.5,30,20c0-0.2,0-0.5,0-0.7c-3.1,0.8-5.5,3.5-5.9,6.7
	c0,0.3-0.1,0.7-0.1,1c0,0.3,0,0.7,0.1,1c0.5,3.9,3.9,7,7.9,7s7.4-3.1,7.9-7C39.2,28,38.6,27.9,38,27.7z"></path>
<path fill="#37474F" d="M24,27c0,0.3,0,0.7-0.1,1c-0.7,0-1.3-0.1-2-0.3c-3.1-0.8-5.5-3.5-5.9-6.7c0.7,0,1.5,0.2,2.1,0.4
	c0.5,1.9,1.8,3.5,3.6,4.2c0.7,0.3,1.4,0.4,2.1,0.4C24,26.3,24,26.7,24,27z M31.9,19c-0.5-3.9-3.9-7-7.9-7s-7.4,3.1-7.9,7
	c0.7,0,1.3,0.1,2,0.3c0.4-3,2.9-5.3,6-5.3s5.6,2.3,6,5.3c0,0.2,0,0.5,0,0.7c0,0.5-0.1,1-0.2,1.4c-0.5,1.9-1.8,3.5-3.6,4.2
	C26.1,26,26,26.5,26,27c0,0.2,0,0.5,0,0.7c3.1-0.8,5.5-3.5,5.9-6.7c0-0.3,0.1-0.7,0.1-1C32,19.7,32,19.3,31.9,19z"></path>
</svg>
